<?xml version="1.0" encoding="utf-8" ?>
<svg baseProfile="tiny" height="80mm" stroke-width="1" version="1.2" viewBox="0 0 330.0 80" width="330.0mm" xmlns="http://www.w3.org/2000/svg" xmlns:ev="http://www.w3.org/2001/xml-events" xmlns:xlink="http://www.w3.org/1999/xlink"><defs /><polyline fill="none" points="0,0 320.0,0 320.0,60 0,60 0,0" stroke="red" /><polyline fill="none" points="85.0,37.5 75.0,37.5 71.7832,47.5 71.7832,60.0 71.7832,87.5 65.0,87.5 65.0,60.0 65.0,32.5 85.0,27.5 85.0,15.0 115.0,15.0 115.0,27.5 120.0,27.5 120.0,15.0 150.0,15.0 150.0,27.5 155.0,27.5 155.0,15.0 185.0,15.0 185.0,27.5 190.0,27.5 190.0,15.0 220.0,15.0 220.0,27.5 225.0,27.5 225.0,15.0 255.0,15.0 255.0,27.5 255.0,45.0 255.0,45.0 225.0,45.0 225.0,32.5 220.0,32.5 220.0,45.0 190.0,45.0 190.0,32.5 185.0,32.5 185.0,45.0 155.0,45.0 155.0,32.5 150.0,32.5 150.0,45.0 120.0,45.0 120.0,32.5 115.0,32.5 115.0,45.0 85.0,45.0 85.0,37.5" stroke="blue" /></svg>