<?xml version="1.0" encoding="utf-8" ?>
<svg baseProfile="tiny" height="80mm" stroke-width="1" version="1.2" viewBox="0 0 330.0 80" width="330.0mm" xmlns="http://www.w3.org/2000/svg" xmlns:ev="http://www.w3.org/2001/xml-events" xmlns:xlink="http://www.w3.org/1999/xlink"><defs /><polyline fill="none" points="20,22.5 10.0,22.5 6.7832,32.5 6.7832,45.0 6.7832,72.5 0,72.5 0,45.0 0,17.5 20,12.5 20,0 50,0 50,12.5 55,12.5 55,0 85,0 85,12.5 90,12.5 90,0 120,0 120,12.5 125,12.5 125,0 155,0 155,12.5 160,12.5 160,0 190,0 190,12.5 190,30 190,30 160,30 160,17.5 155,17.5 155,30 125,30 125,17.5 120,17.5 120,30 90,30 90,17.5 85,17.5 85,30 55,30 55,17.5 50,17.5 50,30 20,30 20,22.5" stroke="black" /></svg>