<?xml version="1.0" encoding="UTF-8" standalone="no"?>
<svg
   width="377.2mm"
   height="375mm"
   viewBox="0 0 377.2 375"
   version="1.1"
   preserveAspectRatio="xMidYMid meet"
   id="svg3823"
   sodipodi:docname="box_updated_4.svg"
   inkscape:version="1.2 (dc2aedaf03, 2022-05-15)"
   xmlns:inkscape="http://www.inkscape.org/namespaces/inkscape"
   xmlns:sodipodi="http://sodipodi.sourceforge.net/DTD/sodipodi-0.dtd"
   xmlns="http://www.w3.org/2000/svg"
   xmlns:svg="http://www.w3.org/2000/svg">
  <defs
     id="defs3827" />
  <sodipodi:namedview
     id="namedview3825"
     pagecolor="#ffffff"
     bordercolor="#999999"
     borderopacity="1"
     inkscape:showpageshadow="0"
     inkscape:pageopacity="0"
     inkscape:pagecheckerboard="0"
     inkscape:deskcolor="#d1d1d1"
     inkscape:document-units="mm"
     showgrid="false"
     inkscape:zoom="0.58278889"
     inkscape:cx="295.99054"
     inkscape:cy="356.0466"
     inkscape:window-width="1920"
     inkscape:window-height="1013"
     inkscape:window-x="-9"
     inkscape:window-y="-9"
     inkscape:window-maximized="1"
     inkscape:current-layer="svg3823"
     showguides="true" />
  <path
     d="m 3.5,187.7 v 32.988 h -3 v 26.625 h 3 v 26.625 6.362 h 23.438 v -3 h 26.625 v 3 h 26.625 v -3 h 26.625 v 3 h 26.625 v -3 h 26.625 v 3 H 183.5 v -32.987 h 3 v -26.625 h -3 V 194.063 187.7 h -23.437 v 3 h -26.625 v -3 h -26.625 v 3 H 80.188 v -3 H 53.563 v 3 H 26.938 v -3 z m 155.9625,49.402 h -26.625 v -3 h 26.62501 z m -106.50001,0 H 26.3375 l -10e-6,-3 h 26.625 z m 26.625,-3 h 26.625 v 3 H 79.5875 Z"
     id="left_outsideCutPath"
     stroke="#FF0000"
     stroke-width="0.1"
     style="font-size:12px;fill:none;fill-rule:evenodd;stroke:#000000;stroke-width:1;stroke-linecap:round;stroke-dasharray:none;stroke-opacity:1"
     vector-effect="non-scaling-stroke"
     sodipodi:nodetypes="cccccccccccccccccccccccccccccccccccccccccccccccccccccc" />
  <path
     d="m 3.5,94.1 v 32.988 h -3 v 26.625 h 3 v 26.625 6.362 h 23.438075 v -3 h 26.62512 v 3 h 26.62505 v -3 h 26.624995 v 3 h 26.625 v -3 h 26.625 v 3 h 23.437 v -32.987 h 3 v -26.625 h -3 V 100.463 94.1 h -23.437 v 3 h -26.625 v -3 h -26.625 v 3 H 80.188245 v -3 h -26.62505 v 3 h -26.62512 v -3 z m 155.96274,49.402 h -26.625 v -3 h 26.62501 z m -106.500065,0 h -26.62509 l -10e-6,-3 h 26.6251 z m 26.62506,-3 h 26.624995 v 3 H 79.587745 Z"
     id="left_outsideCutPath-8"
     stroke="#FF0000"
     stroke-width="0.1"
     style="font-size:12px;fill:none;fill-rule:evenodd;stroke:#000000;stroke-width:1;stroke-linecap:round;stroke-dasharray:none;stroke-opacity:1"
     vector-effect="non-scaling-stroke"
     sodipodi:nodetypes="cccccccccccccccccccccccccccccccccccccccccccccccccccccc" />
  <path
     d="m 3.5,370.9 h 23.438 v 3 h 26.625 v -3 h 26.625 v 3 h 26.625 v -3 h 26.625 v 3 h 26.625 v -3 H 183.5 v -29.988 h 3 v -26.625 h -3 V 287.662 284.3 h -23.437 v -3 h -26.625 v 3 h -26.625 v -3 H 80.188 v 3 H 53.563 v -3 H 26.938 v 3 H 3.5 v 29.987 h -3 v 26.625 h 3 v 26.625 z"
     id="top_outsideCutPath"
     stroke="#FF0000"
     stroke-width="0.1"
     style="font-size:12px;fill:none;fill-rule:evenodd;stroke:#000000;stroke-width:1;stroke-linecap:round;stroke-dasharray:none;stroke-opacity:1"
     vector-effect="non-scaling-stroke" />
  <path
     d="m 190.5,187.7 v 0.15467 h -3 v 26.625 h 3 v 26.62502 h -3 v 26.62508 h 3 v 26.62506 h -3 v 26.625 h 3 v 0.15367 h 29.988 26.625 26.625 3.362 v -0.15367 h 3 v -26.625 h -3 v -26.62506 h 3 v -26.62508 h -3 v -26.62502 h 3 v -26.625 h -3 V 187.7 h -29.987 -26.625 -26.625 z"
     id="bottom_outsideCutPath-5"
     stroke="#FF0000"
     stroke-width="0.1"
     style="font-size:12px;fill:none;fill-rule:evenodd;stroke:#000000;stroke-width:1;stroke-linecap:round;stroke-dasharray:none;stroke-opacity:1"
     vector-effect="non-scaling-stroke"
     sodipodi:nodetypes="ccccccccccccccccccccccccccccccccccc" />
  <g
     id="g1496"
     transform="translate(187.45,-186.3)" />
  <g
     id="g4624"
     style="stroke:#000000;stroke-width:1;stroke-dasharray:none;stroke-opacity:1"
     transform="translate(187.45,-188.30001)" />
  <g
     id="g3171">
    <path
       d="m 0.05,186.8 v 32.988 h 3 v 26.625 h -3 v 26.625 6.362 h 32.988 v -3 h 26.625 v 3 h 26.625 6.362 v -32.987 h -3 v -26.625 h 3 V 193.163 186.8 H 59.663 v 3 H 33.038 v -3 H 6.412 Z"
       id="back_outsideCutPath"
       stroke="#FF0000"
       stroke-width="0.1"
       style="font-size:12px;fill:none;fill-rule:evenodd;stroke:#000000;stroke-width:1;stroke-linecap:round;stroke-dasharray:none;stroke-opacity:1"
       vector-effect="non-scaling-stroke"
       transform="translate(187.45,-186.3)" />
    <ellipse
       style="fill:#000000;fill-opacity:0;stroke:#000000;stroke-width:0.5;stroke-linejoin:round;stroke-dasharray:none;stroke-opacity:1;paint-order:stroke fill markers"
       id="path4346"
       cx="46.399998"
       cy="263"
       rx="2.8999999"
       ry="2.9000001"
       transform="translate(187.45,-186.3)" />
    <ellipse
       style="fill:#000000;fill-opacity:0;stroke:#000000;stroke-width:0.5;stroke-linejoin:round;stroke-dasharray:none;stroke-opacity:1;paint-order:stroke fill markers"
       id="path4346-5"
       cx="57.399998"
       cy="263"
       rx="2.8999999"
       ry="2.9000001"
       transform="translate(187.45,-186.3)" />
    <ellipse
       style="fill:#000000;fill-opacity:0;stroke:#000000;stroke-width:0.5;stroke-linejoin:round;stroke-dasharray:none;stroke-opacity:1;paint-order:stroke fill markers"
       id="path4346-5-1"
       cx="35.399998"
       cy="263"
       rx="2.8999999"
       ry="2.9000001"
       transform="translate(187.45,-186.3)" />
    <text
       xml:space="preserve"
       style="font-style:normal;font-weight:normal;font-size:4.23333px;line-height:1.25;font-family:sans-serif;fill:#ff0000;fill-opacity:1;stroke:#000000;stroke-width:0;stroke-dasharray:none;stroke-opacity:1"
       x="223.19125"
       y="66.350029"
       id="text574-1"><tspan
         sodipodi:role="line"
         id="tspan572-3"
         x="223.19125"
         y="66.350029"
         style="font-size:4.23333px;fill:#ff0000;fill-opacity:1;stroke:#000000;stroke-width:0;stroke-dasharray:none;stroke-opacity:1">Air output</tspan></text>
  </g>
  <g
     id="g3196">
    <path
       d="m 0.05,282.40001 v 32.98801 H 3.0500002 V 342.013 H 0.05 v 26.62501 6.362 h 32.988002 v -3 h 26.624999 v 3 h 26.625003 6.361999 V 342.013 h -3 v -26.62498 h 3 v -26.62501 -6.363 H 59.663001 v 3 H 33.038002 v -3 H 6.4120002 Z"
       id="front_outsideCutPath"
       stroke="#FF0000"
       stroke-width="0.1"
       style="stroke:#000000;stroke-width:1;stroke-dasharray:none;stroke-opacity:1;font-size:12px;fill:none;fill-rule:evenodd;stroke-linecap:round"
       vector-effect="non-scaling-stroke"
       transform="translate(187.45,-188.30001)" />
    <rect
       style="stroke:#000000;stroke-width:0.5;stroke-dasharray:none;stroke-opacity:1;fill:#000000;fill-opacity:0;stroke-linecap:square;stroke-linejoin:miter;stroke-miterlimit:4.6;paint-order:stroke fill markers"
       id="rect4444"
       width="69.800003"
       height="19.799999"
       x="11.5"
       y="298.4635"
       transform="translate(187.45,-188.30001)" />
    <text
       xml:space="preserve"
       style="font-style:normal;font-weight:normal;font-size:4.23333px;line-height:1.25;font-family:sans-serif;fill:#ff0000;fill-opacity:1;stroke:#000000;stroke-width:0;stroke-dasharray:none;stroke-opacity:1"
       x="221.08659"
       y="140.72545"
       id="text574-1-6"><tspan
         sodipodi:role="line"
         id="tspan572-3-2"
         x="221.08659"
         y="140.72545"
         style="font-size:4.23333px;fill:#ff0000;fill-opacity:1;stroke:#000000;stroke-width:0;stroke-dasharray:none;stroke-opacity:1">Power input</tspan></text>
  </g>
  <g
     id="g1638">
    <path
       d="m 3.499991,90.100138 h 23.437997 v 3 h 26.625 v -3 h 26.625 v 3 h 26.625002 v -3 h 26.625 v 3 h 26.625 v -3 h 23.437 v -29.988 h 3 v -26.62507 h -3 V 6.862 3.5 h -23.437 v -3 h -26.625 v 3 h -26.625 v -3 H 80.187988 v 3 h -26.625 v -3 h -26.625 v 3 H 3.499991 V 33.487068 H 0.5 v 26.62507 h 2.999991 v 26.625 z"
       id="bottom_outsideCutPath"
       stroke="#FF0000"
       stroke-width="0.1"
       style="font-size:12px;fill:none;fill-rule:evenodd;stroke:#000000;stroke-width:1;stroke-linecap:round;stroke-dasharray:none;stroke-opacity:1"
       vector-effect="non-scaling-stroke" />
    <g
       id="g1622">
      <rect
         style="fill:#000000;fill-opacity:0;stroke:#000000;stroke-width:0.5;stroke-linecap:square;stroke-linejoin:miter;stroke-miterlimit:0;stroke-dasharray:none;stroke-opacity:1;paint-order:stroke fill markers"
         id="rect4593"
         width="39.5"
         height="94.800003"
         x="-67.270668"
         y="12.051691"
         transform="rotate(-90)" />
      <circle
         style="fill:#000000;fill-opacity:0;stroke:#000000;stroke-width:0.5;stroke-linecap:square;stroke-dasharray:none;stroke-opacity:1;paint-order:stroke fill markers"
         id="path405"
         cx="126.88807"
         cy="37.112499"
         r="2.95" />
      <circle
         style="fill:#000000;fill-opacity:0;stroke:#000000;stroke-width:0.5;stroke-linecap:square;stroke-dasharray:none;stroke-opacity:1;paint-order:stroke fill markers"
         id="path405-80"
         cx="126.88807"
         cy="66.753944"
         r="2.95" />
      <circle
         style="fill:#000000;fill-opacity:0;stroke:#000000;stroke-width:0.5;stroke-linecap:square;stroke-dasharray:none;stroke-opacity:1;paint-order:stroke fill markers"
         id="path405-8"
         cx="144.88808"
         cy="37.112499"
         r="2.95" />
      <circle
         style="fill:#000000;fill-opacity:0;stroke:#000000;stroke-width:0.5;stroke-linecap:square;stroke-dasharray:none;stroke-opacity:1;paint-order:stroke fill markers"
         id="path405-8-8"
         cx="162.88806"
         cy="37.112499"
         r="2.95" />
      <text
         xml:space="preserve"
         style="font-style:normal;font-weight:normal;font-size:4.23333px;line-height:1.25;font-family:sans-serif;fill:#ff0000;fill-opacity:1;stroke:#000000;stroke-width:0;stroke-dasharray:none;stroke-opacity:1"
         x="119.4136"
         y="23.637531"
         id="text574"><tspan
           sodipodi:role="line"
           id="tspan572"
           x="119.4136"
           y="23.637531"
           style="font-size:4.23333px;fill:#ff0000;fill-opacity:1;stroke:#000000;stroke-width:0;stroke-dasharray:none;stroke-opacity:1">Duty-cycles</tspan></text>
      <text
         xml:space="preserve"
         style="font-style:normal;font-weight:normal;font-size:4.23333px;line-height:1.25;font-family:sans-serif;fill:#ff0000;fill-opacity:1;stroke:#000000;stroke-width:0;stroke-dasharray:none;stroke-opacity:1"
         x="119.27158"
         y="53.335979"
         id="text574-5"><tspan
           sodipodi:role="line"
           id="tspan572-1"
           x="119.27158"
           y="53.335979"
           style="font-size:4.23333px;fill:#ff0000;fill-opacity:1;stroke:#000000;stroke-width:0;stroke-dasharray:none;stroke-opacity:1">Impulse duration</tspan><tspan
           sodipodi:role="line"
           x="119.27158"
           y="58.627636"
           style="font-size:4.23333px;fill:#ff0000;fill-opacity:1;stroke:#000000;stroke-width:0;stroke-dasharray:none;stroke-opacity:1"
           id="tspan697" /></text>
      <text
         xml:space="preserve"
         style="font-style:normal;font-weight:normal;font-size:10.5833px;line-height:1.25;font-family:sans-serif;fill:#ff0000;fill-opacity:1;stroke:#ff0000;stroke-width:0;stroke-dasharray:none;stroke-opacity:1"
         x="12.796907"
         y="21.34827"
         id="text749"><tspan
           sodipodi:role="line"
           id="tspan747"
           x="12.796907"
           y="21.34827"
           style="fill:#ff0000;fill-opacity:1;stroke:#ff0000;stroke-width:0;stroke-dasharray:none;stroke-opacity:1">OS-SCT device</tspan></text>
    </g>
  </g>
  <text
     xml:space="preserve"
     style="font-style:normal;font-weight:normal;font-size:10.5833px;line-height:1.25;font-family:sans-serif;fill:#ff0000;fill-opacity:1;stroke:#ff0000;stroke-width:0;stroke-dasharray:none;stroke-opacity:1"
     x="194.54849"
     y="67.499626"
     id="text749-0"><tspan
       sodipodi:role="line"
       id="tspan747-2"
       x="194.54849"
       y="67.499626"
       style="fill:#ff0000;fill-opacity:1;stroke:#ff0000;stroke-width:0;stroke-dasharray:none;stroke-opacity:1" /></text>
  <text
     xml:space="preserve"
     style="font-style:normal;font-weight:normal;font-size:10.5833px;line-height:1.25;font-family:sans-serif;fill:#000000;fill-opacity:1;stroke:#000000;stroke-width:1;stroke-opacity:1;stroke-dasharray:none"
     x="221.50591"
     y="135.79274"
     id="text753"><tspan
       sodipodi:role="line"
       id="tspan751"
       x="221.50591"
       y="135.79274"
       style="stroke-width:1;stroke:#000000;stroke-opacity:1;stroke-dasharray:none" /></text>
</svg>
